<svg width="228" height="119" viewBox="0 0 228 119" fill="none" xmlns="http://www.w3.org/2000/svg">
<path d="M113.996 39.067H128.447L139.713 19.5126H125.262L113.996 39.067ZM99.545 39.067H113.996L102.731 19.5126H88.2793L99.545 39.067ZM102.731 19.5126H125.262L113.996 0L102.731 19.5126Z" fill="#CCCCCC"/>
<path d="M10.6224 64.5873H33.1948V56.4783H0V83.769H10.6224V76.7112H26.4386V69.5781H10.6224V64.5873Z" fill="#CCCCCC"/>
<path d="M45.6069 73.3589L50.644 63.8697L55.681 73.3589H45.6069ZM44.5711 56.4783L28.7949 83.7678H40.08L42.274 79.6351H59.0139L61.208 83.7678H72.9623L57.1849 56.4783H44.5711Z" fill="#CCCCCC"/>
<path d="M99.1374 56.4783L89.4135 74.6466L79.6895 56.4783H67.5049L83.2822 83.769H95.389L111.165 56.4783H99.1374Z" fill="#CCCCCC"/>
<path d="M137.31 77.1408H124.306V73.0081H137.31C138.677 73.0081 139.653 73.8662 139.653 75.0739C139.653 76.2827 138.677 77.1408 137.31 77.1408ZM136.452 63.1065C137.818 63.1065 138.795 63.9634 138.795 65.1711C138.795 66.3811 137.818 67.238 136.452 67.238H124.306V63.1065H136.452ZM145.425 69.9094C148.195 68.5646 149.495 66.4394 149.495 64.0411C149.495 59.5576 145.706 56.4783 138.248 56.4783H113.957V83.769H138.795C146.801 83.769 150.353 80.6109 150.353 76.0497C150.353 73.4971 148.806 71.1823 145.425 69.9094Z" fill="#CCCCCC"/>
<path d="M166.575 73.1646H182.47V67.045H166.575V63.8092H189.148V56.4783H155.953V83.769H189.928V76.4393H166.575V73.1646Z" fill="#CCCCCC"/>
<path d="M228 56.4783H192.268V63.808H204.764V83.769H215.504V63.808H228V56.4783Z" fill="#CCCCCC"/>
<path d="M14.24 97.168V118H36.22V112.624H22.808V110.188H35.604V104.728H22.808V102.488H36.024V97.168H14.24Z" fill="#CCCCCC"/>
<path d="M65.2772 111.42V111.084C65.2772 107.22 63.3732 104.896 54.8892 104.728L51.8092 104.672C48.8132 104.616 48.2532 104.084 48.2532 103.272C48.2532 102.46 48.7572 101.872 51.9492 101.872H52.1452C55.3092 101.872 55.8692 102.908 55.9812 103.692H64.9692V103.636C64.9692 100.388 63.2052 96.86 52.7332 96.86H51.4172C42.0932 96.86 39.4892 99.464 39.4892 103.244V103.468C39.4892 106.884 41.4492 109.824 49.6252 109.992L52.6212 110.048C55.9812 110.104 56.3732 110.748 56.3732 111.588C56.3732 112.344 55.8692 113.156 52.4252 113.156H52.2572C48.6452 113.156 48.4212 111.728 48.3372 111H39.1532V111.084C39.1532 114.024 40.3012 118.336 52.0892 118.336H52.7332C63.5692 118.336 65.2772 115.004 65.2772 111.42Z" fill="#CCCCCC"/>
<path d="M84.6375 112.036C92.9535 112.036 95.0815 108.928 95.0815 104.644V104.252C95.0815 100.08 93.0655 97.168 84.6375 97.168H68.8455V118H77.3855V112.036H84.6375ZM77.3855 102.88H83.7975C85.8135 102.88 86.2055 103.776 86.2055 104.532V104.588C86.2055 105.456 85.8135 106.324 83.7975 106.324H77.3855V102.88Z" fill="#CCCCCC"/>
<path d="M111.45 96.804C99.6061 96.804 97.5901 102.936 97.5621 107.108V107.948C97.5621 112.064 99.6061 118.364 111.45 118.364H112.738C124.666 118.364 126.654 112.064 126.654 107.948V107.108C126.654 102.936 124.638 96.804 112.738 96.804H111.45ZM117.694 107.332V107.612C117.694 109.32 117.022 112.092 112.122 112.092C107.222 112.092 106.494 109.32 106.494 107.612V107.332C106.494 105.68 107.11 102.964 112.094 102.964C117.022 102.964 117.694 105.68 117.694 107.332Z" fill="#CCCCCC"/>
<path d="M152.409 107.976C154.649 107.556 157.225 106.24 157.225 103.076V102.936C157.225 99.968 156.049 97.168 148.573 97.168H130.205V118H138.745V111.812H144.849C147.845 111.812 148.769 112.344 148.769 115.032V116.796C148.769 117.524 148.853 117.888 148.937 118H157.729V117.86C157.533 117.608 157.421 117.328 157.421 116.516V112.68C157.421 109.376 155.013 108.256 152.409 107.976ZM138.745 102.908H146.277C148.041 102.908 148.377 103.636 148.377 104.364V104.392C148.377 105.176 148.041 105.96 146.277 105.96H138.745V102.908Z" fill="#CCCCCC"/>
<path d="M160.069 103.468H168.581V118H177.093V103.468H185.605V97.168H160.069V103.468Z" fill="#CCCCCC"/>
<path d="M214.082 111.42V111.084C214.082 107.22 212.178 104.896 203.694 104.728L200.614 104.672C197.618 104.616 197.058 104.084 197.058 103.272C197.058 102.46 197.562 101.872 200.754 101.872H200.95C204.114 101.872 204.674 102.908 204.786 103.692H213.774V103.636C213.774 100.388 212.01 96.86 201.538 96.86H200.222C190.898 96.86 188.294 99.464 188.294 103.244V103.468C188.294 106.884 190.254 109.824 198.43 109.992L201.426 110.048C204.786 110.104 205.178 110.748 205.178 111.588C205.178 112.344 204.674 113.156 201.23 113.156H201.062C197.45 113.156 197.226 111.728 197.142 111H187.958V111.084C187.958 114.024 189.106 118.336 200.894 118.336H201.538C212.374 118.336 214.082 115.004 214.082 111.42Z" fill="#CCCCCC"/>
</svg>
