<svg width="228" height="119" viewBox="0 0 228 119" fill="none" xmlns="http://www.w3.org/2000/svg">
<path d="M49.9112 118.679C60.1333 118.679 62.5878 113.548 62.5878 109.916V109.743H55.4843C55.3977 110.319 54.7913 113.231 49.276 113.231C44.1938 113.231 42.8366 110.002 42.8366 107.696V107.321C42.8366 104.842 44.136 101.931 49.2471 101.931C54.7624 101.931 55.3977 104.813 55.4843 105.361H62.5878V105.217C62.5878 101.354 60.0756 96.5399 49.9112 96.5399H48.5829C38.0721 96.5399 35.6465 102.767 35.6465 107.119V107.984C35.6465 112.279 38.1009 118.679 48.5829 118.679H49.9112Z" fill="#CCCCCC"/>
<path d="M85.1788 118.335H92.5421L82.4644 96.8875H73.3685L63.6084 118.335H70.5098L72.1557 114.616H83.504L85.1788 118.335ZM74.2636 109.888L77.7865 101.875L81.396 109.888H74.2636Z" fill="#CCCCCC"/>
<path d="M118.222 111.557V111.211C118.222 107.55 116.345 105.1 108.317 104.84L105.285 104.754C102.022 104.639 101.3 103.918 101.3 102.909C101.3 101.842 102.051 101.151 105.718 101.151H105.978C109.819 101.151 110.367 102.448 110.512 103.341H117.846V103.111C117.846 100.113 116.374 96.596 106.44 96.596H105.343C96.1893 96.596 94.1102 99.5075 94.1102 103.024V103.284C94.1102 106.599 96.2759 109.482 103.784 109.683L106.729 109.77C110.252 109.856 110.945 110.635 110.945 111.759C110.945 112.826 110.396 114.007 106.209 114.007H106.036C101.733 114.007 101.387 112.105 101.3 111.211H93.8503V111.471C93.8503 114.18 95.0054 118.706 105.776 118.706H106.556C116.691 118.706 118.222 114.872 118.222 111.557Z" fill="#CCCCCC"/>
<path d="M129.269 96.8875H122.367V118.335H129.269V96.8875Z" fill="#CCCCCC"/>
<path d="M153.487 118.335H160.157V96.8875H153.458V109.744L141.388 96.8875H134.342V118.335H141.07V105.247L153.487 118.335Z" fill="#CCCCCC"/>
<path d="M177.677 96.5399C166.906 96.5399 164.307 102.565 164.307 107.119V107.984C164.307 112.481 166.906 118.679 177.677 118.679H178.976C189.776 118.679 192.346 112.481 192.346 107.984V107.119C192.346 102.565 189.747 96.5399 178.976 96.5399H177.677ZM185.156 107.35V107.725C185.156 110.031 184.059 113.26 178.341 113.26C172.71 113.26 171.497 110.031 171.497 107.725V107.35C171.497 105.015 172.595 101.902 178.341 101.902C184.059 101.902 185.156 105.015 185.156 107.35Z" fill="#CCCCCC"/>
<path d="M113.996 39.067H128.447L139.713 19.5126H125.262L113.996 39.067ZM99.545 39.067H113.996L102.731 19.5126H88.2793L99.545 39.067ZM102.731 19.5126H125.262L113.996 2.28882e-05L102.731 19.5126Z" fill="#CCCCCC"/>
<path d="M10.6224 64.5873H33.1948V56.4783H0V83.769H10.6224V76.7112H26.4386V69.5781H10.6224V64.5873Z" fill="#CCCCCC"/>
<path d="M45.6071 73.3589L50.6442 63.8697L55.6813 73.3589H45.6071ZM44.5713 56.4783L28.7952 83.7678H40.0802L42.2743 79.6351H59.0141L61.2082 83.7678H72.9625L57.1852 56.4783H44.5713Z" fill="#CCCCCC"/>
<path d="M99.1374 56.4783L89.4135 74.6466L79.6895 56.4783H67.5049L83.2822 83.769H95.389L111.165 56.4783H99.1374Z" fill="#CCCCCC"/>
<path d="M137.31 77.1408H124.306V73.0081H137.31C138.677 73.0081 139.653 73.8662 139.653 75.0739C139.653 76.2828 138.677 77.1408 137.31 77.1408ZM136.452 63.1065C137.818 63.1065 138.795 63.9634 138.795 65.1711C138.795 66.3811 137.818 67.2381 136.452 67.2381H124.306V63.1065H136.452ZM145.425 69.9094C148.195 68.5646 149.495 66.4394 149.495 64.0411C149.495 59.5576 145.706 56.4783 138.248 56.4783H113.957V83.769H138.795C146.801 83.769 150.353 80.6109 150.353 76.0497C150.353 73.4971 148.806 71.1823 145.425 69.9094Z" fill="#CCCCCC"/>
<path d="M166.575 73.1647H182.47V67.045H166.575V63.8092H189.148V56.4783H155.953V83.769H189.928V76.4393H166.575V73.1647Z" fill="#CCCCCC"/>
<path d="M228 56.4783H192.268V63.808H204.764V83.769H215.504V63.808H228V56.4783Z" fill="#CCCCCC"/>
</svg>
