<svg width="38" height="42" viewBox="0 0 38 42" fill="none" xmlns="http://www.w3.org/2000/svg">
<path d="M37.6118 24.1986C38.8486 13.7109 37.0176 7.08966 33.7151 4.09489L33.7168 4.09315C28.3864 -1.0211 10.3847 -1.77805 4.00763 4.32285C1.1438 7.30718 0.135067 11.6871 0.0245215 17.1093C-0.0860244 22.5333 -0.217298 32.694 9.18083 35.4503H9.18946L9.18083 39.6597C9.18083 39.6597 9.11692 41.365 10.1982 41.7078C11.4349 42.1116 11.9946 41.3198 15.8412 36.691C22.2736 37.2531 27.2136 35.9654 27.775 35.7775C29.0739 35.339 36.4235 34.3593 37.6118 24.1986ZM16.4751 33.7293C16.4751 33.7293 12.4039 38.8436 11.1378 40.1713C10.7233 40.6029 10.269 40.5628 10.2759 39.7067C10.2759 39.1446 10.307 32.7183 10.307 32.7183C2.33907 30.4179 2.80889 21.7659 2.89526 17.2398C2.98162 12.712 3.80381 9.0038 6.22891 6.50672C11.8236 1.22194 27.6057 2.40348 31.6268 6.21089C36.5426 10.6012 34.7929 23.0049 34.8033 23.4278C33.7928 31.9092 27.8372 32.4469 26.7421 32.814C26.274 32.9706 21.9299 34.0965 16.4751 33.7293Z" fill="#FFDFEC"/>
<path d="M18.727 7.50098C18.062 7.50098 18.062 8.54506 18.727 8.55376C23.8864 8.59378 28.1355 12.2167 28.1821 18.8623C28.1821 19.5636 29.2012 19.5549 29.1926 18.8536H29.1909C29.1356 11.693 24.4961 7.541 18.727 7.50098Z" fill="#FFDFEC"/>
<path d="M25.5154 17.7595C25.4999 18.4521 26.5173 18.4852 26.5259 17.7839C26.6105 13.8355 24.1941 10.5832 19.6531 10.2404C18.9881 10.1917 18.919 11.2445 19.5822 11.2932C23.5204 11.5942 25.5949 14.3019 25.5154 17.7595Z" fill="#FFDFEC"/>
<path d="M24.4241 22.2498C23.5709 21.7521 22.702 22.0619 22.3428 22.5508L21.5914 23.5305C21.2097 24.0282 20.4963 23.9621 20.4963 23.9621C15.2903 22.5752 13.8981 17.0868 13.8981 17.0868C13.8981 17.0868 13.8342 16.3438 14.3109 15.9453L15.2506 15.1622C15.7204 14.7864 16.0175 13.8815 15.539 12.9923C14.2608 10.6657 13.4024 9.86353 12.9654 9.24753C12.5059 8.66806 11.815 8.53755 11.0965 8.92908H11.0809C9.58682 9.80959 7.95109 11.4575 8.47446 13.1541C9.36746 14.943 11.0084 20.6454 16.2386 24.954C18.6965 26.9917 22.5863 29.0798 24.2376 29.5618L24.2531 29.5862C25.8802 30.1326 27.4624 28.4203 28.3071 26.8698V26.8577C28.6819 26.1077 28.5575 25.3977 28.01 24.9331C27.0392 23.9795 25.5745 22.9267 24.4241 22.2498Z" fill="#FFDFEC"/>
<path d="M20.3633 14.1242C22.0233 14.2217 22.8282 15.0952 22.9145 16.8893C22.9456 17.5905 23.9561 17.5418 23.925 16.8406C23.8144 14.4983 22.6019 13.1932 20.4186 13.0714C19.7536 13.0314 19.6914 14.0842 20.3633 14.1242Z" fill="#FFDFEC"/>
</svg>
