<svg width="32" height="37" viewBox="0 0 32 37" fill="none" xmlns="http://www.w3.org/2000/svg">
<path fill-rule="evenodd" clip-rule="evenodd" d="M16.9544 8.70182V0H22.9939C23.0075 0.0472483 23.0207 0.0507027 23.0331 0L23.0511 0.140853L23.0701 0.279366L23.0898 0.415873L23.1105 0.550709L23.1321 0.683874L23.1548 0.815813L23.1783 0.946636L23.2029 1.07646L23.2285 1.2055L23.2553 1.33398L23.2674 1.39048C24.3375 6.3209 27.5857 8.51494 32 8.70349V14.9594C28.797 15.0584 25.8902 14.1553 23.2674 12.2907V25.064C23.2674 31.4539 18.0545 36.6418 11.6337 36.6418C5.21291 36.6418 0 31.4539 0 25.064C0 18.674 5.21291 13.4861 11.6337 13.4861C12.1623 13.4861 12.6827 13.5213 13.1925 13.5894V19.8945C12.6993 19.7443 12.1759 19.6635 11.6337 19.6635C8.69312 19.6635 6.30575 22.0394 6.30575 24.9659C6.30575 27.8923 8.69312 30.2683 11.6337 30.2683C14.5413 30.2683 16.9081 27.9452 16.9607 25.064H16.9627V8.70182H16.9544Z" fill="#FFDFEC"/>
</svg>
