<svg width="38" height="29" viewBox="0 0 38 29" fill="none" xmlns="http://www.w3.org/2000/svg">
<path d="M37.2171 4.53781C36.7792 2.76339 35.4957 1.36463 33.8679 0.886832C30.8943 0 18.9996 0 18.9996 0C18.9996 0 7.1053 0 4.13167 0.853209C2.53527 1.3305 1.22044 2.76364 0.782546 4.53781C0 7.77874 0 14.5 0 14.5C0 14.5 0 21.2551 0.782546 24.4622C1.2209 26.2364 2.50396 27.6351 4.13191 28.1129C7.13661 29 19 29 19 29C19 29 30.8943 29 33.8679 28.1468C35.4959 27.6692 36.7792 26.2705 37.2175 24.4963C37.9998 21.2551 37.9998 14.5341 37.9998 14.5341C37.9998 14.5341 38.0312 7.77874 37.2171 4.53781ZM15.2126 20.7093V8.29066L25.1036 14.5L15.2126 20.7093Z" fill="#FFDFEC"/>
</svg>
