<svg width="36" height="36" viewBox="0 0 36 36" fill="none" xmlns="http://www.w3.org/2000/svg">
<path d="M24.75 0H11.25C5.03775 0 0 5.03775 0 11.25V24.75C0 30.9622 5.03775 36 11.25 36H24.75C30.9622 36 36 30.9622 36 24.75V11.25C36 5.03775 30.9622 0 24.75 0ZM32.625 24.75C32.625 29.0925 29.0925 32.625 24.75 32.625H11.25C6.9075 32.625 3.375 29.0925 3.375 24.75V11.25C3.375 6.9075 6.9075 3.375 11.25 3.375H24.75C29.0925 3.375 32.625 6.9075 32.625 11.25V24.75Z" fill="#FFDFEC"/>
<path d="M18.0012 9C13.031 9 9.00122 13.0297 9.00122 18C9.00122 22.9703 13.031 27 18.0012 27C22.9715 27 27.0012 22.9703 27.0012 18C27.0012 13.0297 22.9715 9 18.0012 9ZM18.0012 23.625C14.9007 23.625 12.3762 21.1005 12.3762 18C12.3762 14.8973 14.9007 12.375 18.0012 12.375C21.1017 12.375 23.6262 14.8973 23.6262 18C23.6262 21.1005 21.1017 23.625 18.0012 23.625Z" fill="#FFDFEC"/>
<path d="M27.6768 9.52326C28.3391 9.52326 28.876 8.98633 28.876 8.32401C28.876 7.66168 28.3391 7.12476 27.6768 7.12476C27.0145 7.12476 26.4775 7.66168 26.4775 8.32401C26.4775 8.98633 27.0145 9.52326 27.6768 9.52326Z" fill="#FFDFEC"/>
</svg>
